<?xml version="1.0" encoding="UTF-8"?>
<svg version="1.1" viewBox="0 0 106 28" xmlns="http://www.w3.org/2000/svg">
 <g aria-label="erhise">
  <path d="m50.524 19.847q0.85934 0.11307 0.85934 0.90456 0 0.29398-0.13568 0.65581-0.11307 0.33921-0.3166 0.6332-0.42967 0.6332-0.99502 0.85934-0.54274 0.22614-1.4247 0.27137-1.7865 0.06784-2.5554 0.06784-2.2162 0.06784-3.0755 0.11307-1.7639 0.06784-3.0981 0.45228-0.54274 0.13568-0.74627 0.13568-0.24876 0-0.38444-0.1583t-0.13568-0.56535q0-0.42967 0.1583-0.88195 0.18091-0.4749 0.54274-1.2664 0.3166-0.61058 0.49751-1.1307 0.04523-0.1583 0.20353-0.6332 0.18091-0.4749 0.24876-0.85934 0.02261-0.11307 0.02261-0.27137 0-0.13568-0.04523-0.3166-0.04523-0.20353-0.06784-0.38444-0.02261-0.36182 0.09046-0.70104 0.13568-0.36183 0.38444-0.81411 0.38444-0.79149 0.45228-1.1307 0.40705-1.9448 0.45228-2.9398l0.02261-0.70104q0-0.67842-0.13568-0.99502-0.11307-0.27137-0.40705-0.54274-0.27137-0.27137-0.36183-0.45228-0.11307-0.20353-0.11307-0.54274 0-0.38444 0.18091-0.81411 0.20353-0.45228 0.49751-0.81411 0.52012-0.67842 1.2438-0.67842 0.54274 0 1.0855 0.3166 0.56535 0.3166 1.3568 0.92718 0.58797 0.45228 0.88195 0.6332 1.0629 0.6332 1.7865 0.97241 0.72365 0.33921 1.5378 0.49751 0.38444 0.067842 0.72365 0.067842 0.36183 0 0.72365-0.067842 0.13568-0.022614 0.42967-0.13568 0.3166-0.13568 0.4749-0.13568t0.27137 0.090457q0.22614 0.1583 0.22614 0.52012 0 0.36183-0.22614 0.81411-0.20353 0.42967-0.42967 0.72365-0.70104 0.85934-1.99 1.0402-0.40705 0.06784-0.83672 0.06784-1.1533 0-2.2614-0.38444-1.1081-0.40705-2.5328-1.1307-0.13568 1.7413-0.52012 3.6183l0.76888-0.18091q1.1985-0.29398 1.9448-0.42967 0.76888-0.1583 1.4925-0.1583 0.3166 0 0.4749 0.02261 0.79149 0.06784 0.79149 0.79149 0 0.33921-0.18091 0.74627-0.1583 0.40705-0.40705 0.74627-0.45228 0.61058-1.1081 0.79149-0.65581 0.18091-1.6961 0.20353l-0.76888 0.04523q-0.81411 0.09046-1.2438 0.1583-0.42967 0.04523-0.54274 0.11307-0.09046 0.04523-0.18091 0.20353-0.06784 0.1583-0.1583 0.29398-0.1583 0.27137-0.29398 0.70104t-0.22614 0.85934q-0.13568 0.6332-0.22614 0.90456 1.2664-0.29398 3.6861-0.54274 2.4423-0.27137 4.1158-0.27137 0.72365 0 1.1985 0.06784z"/>
  <path d="m56.209 15.347q0.88195-0.70104 1.4247-1.2438 0.56535-0.54274 0.85934-1.0855-1.2212-0.3166-3.6183-1.0402l-0.11307 4.5907q0.67842-0.56535 0.79149-0.67842zm3.6409 3.166q0.18091-0.36183 0.76888-0.61058 0.58797-0.27137 1.1307-0.27137 0.74627 0 0.74627 0.4749 0 0.13568-0.06784 0.3166-0.92718 2.171-1.4021 4.2062-0.11307 0.45228-0.65581 0.83672-0.22614 0.29398-0.70104 0.49751-0.45228 0.20353-0.90456 0.20353-0.38444 0-0.6332-0.1583-0.22614-0.1583-0.24876-0.49751-0.09046-1.4699-0.97241-2.6911-0.85934-1.2212-2.2162-1.583l-0.11307 3.279q-0.02261 0.42967-0.72365 0.79149-0.67842 0.36183-1.3116 0.36183-0.33921 0-0.54274-0.11307-0.20353-0.13568-0.20353-0.40705l0.06784-3.1207q-0.29398-0.20353-0.29398-0.4749 0-0.3166 0.33921-0.61058 0.11307-4.1158 0.27137-8.2089 0.02261-0.4749 0.6332-0.81411 0.6332-0.36183 1.2664-0.36183 0.4749 0 0.67842 0.22614 2.4649 0.67842 5.1108 1.4925 0.40705-0.09046 0.56535-0.09046 0.38444 0 0.58797 0.18091 0.22614 0.1583 0.22614 0.49751 0 0.92718-0.61058 1.7187-0.61058 0.76888-1.6961 1.7187l-0.45228 0.40706q-1.0855 1.0629-2.1031 1.877 1.8544 0.52012 2.9851 2.0579 0.09046-0.22614 0.4749-1.1307z"/>
  <path d="m73.381 13.018q0.33921 0 0.54274 0.24876 0.22614 0.24876 0.22614 0.70104 0 0.22614-0.09046 0.58797-0.11307 0.54274-0.42967 1.0176-0.3166 0.45228-0.74627 0.72365-0.27137 0.1583-0.54274 0.22614-0.27137 0.04523-0.67842 0.09046l-0.1583 0.02261h-0.06784l0.06784 1.7187q0.18091-0.04523 0.24876-0.04523 0.11307 0 0.24876 0.04523 0.38444 0.06784 0.54274 0.40705 0.13568 0.24876 0.13568 0.61058 0 0.20353-0.04523 0.52012-0.02261 0.06784-0.02261 0.18091-0.09046 0.81411-0.3166 1.4699-0.20353 0.65581-0.6332 1.2212-0.99502 1.2212-1.8996 1.2212-0.1583 0-0.24876-0.02262-0.52012-0.11307-0.72365-0.54274-0.18091-0.42967-0.24876-0.97241-0.18091-1.3795-0.18091-3.1207l0.02261-1.7865v-0.18091l0.02261-0.36183-0.88195 0.1583q-0.67842 0.1583-1.2212 0.33921l-0.18091 0.09046q-0.27137 1.7865-0.33921 2.7363-0.04523 0.36183-0.04523 1.0855 0.02262 0.09046 0.02262 0.3166 0 0.20353-0.02262 0.3166 0 0.42967-0.24876 0.81411-0.22614 0.36183-0.61058 0.54274-0.29398 0.13568-0.6332 0.13568-0.61058 0-1.0402-0.40705-0.49751-0.4749-0.49751-1.2664l0.02261-0.33921q0.06784-1.1759 0.24876-2.3293 0.20353-1.1759 0.54274-2.8042 0.27137-1.4473 0.38444-2.171 0.3166-1.9222 0.45228-3.5052 0.09046-0.99502 0.11307-1.8317v-0.090457q0.02261-0.4749 0.09046-0.79149 0.09046-0.3166 0.36182-0.58797 0.38444-0.38444 0.94979-0.38444 0.58797 0 0.97241 0.38444t0.38444 1.0855q0 0.36183-0.02261 0.52012l-0.02261 0.11307-0.13568 1.6734q-0.06784 1.3342-0.22614 2.3745-0.04523 0.45228-0.18091 1.1759 0.3166-0.11307 1.0629-0.3166l0.13568-0.04523q0.33921-0.06784 0.58797-0.1583 0-1.6056-0.02261-2.3971v-0.04523q0-2.0127 0.04523-3.0077 0.06784-1.5378 1.1533-2.3066 0.38444-0.27137 0.79149-0.27137 0.36183 0 0.61058 0.24876 0.27137 0.33921 0.27137 0.88195 0 0.22614-0.04523 0.58797-0.02261 0.090456-0.02261 0.24876-0.02261 0.24876-0.02261 0.79149 0 0.40705 0.04523 1.2664l0.02261 0.6332 0.02262 0.92718 0.06784 1.8996 1.7413-0.22614 0.1583-0.02261z"/>
  <path d="m75.144 7.8164q-0.38444-0.27137-0.38444-0.85934 0-0.11307 0.04523-0.38444 0.1583-0.67842 0.61058-1.2664 0.4749-0.61058 1.0855-0.97241 0.4749-0.27137 0.94979-0.27137 0.49751 0 0.76888 0.33921 0.20353 0.27137 0.20353 0.65581 0 0.33921-0.20353 0.85934-0.22614 0.6332-0.70104 1.1533-0.45228 0.52012-1.0402 0.79149-0.4749 0.22614-0.83672 0.1583-0.33921-0.045228-0.49751-0.20353zm1.9222 13.048q0 0.1583-0.06784 0.36183-0.04523 0.20353-0.06784 0.29398l-0.04523 0.13568q-0.22614 0.83672-0.81411 1.583t-1.4699 0.74627q-0.09046 0-0.13568-0.02262-0.36183-0.04523-0.58797-0.27137-0.33921-0.40705-0.33921-1.2664 0-0.3166 0.04523-0.72365-0.02261-0.06784 0-0.13568 0-0.09046 0-0.11307 0.06784-1.6056 0.4749-4.3645l0.09046-0.70104q0.22614-1.5378 0.29398-2.3066l0.09046-1.0176q0-0.1583 0.02261-0.24876 0.04523-0.3166 0.02262-0.40705-0.02262-0.02261-0.02262-0.04523 0-0.04523-0.02261-0.06784-0.13568-0.18091-0.13568-0.4749 0-0.36183 0.06784-0.72365 0.02261-0.06784 0.02261-0.22614 0.1583-1.0402 0.88195-1.7865 0.74626-0.74627 1.4021-0.74627 0.24876 0 0.4749 0.11307 0.56535 0.29398 0.56535 1.2438-0.04523 0.6332-0.04523 0.94979l-0.02261 0.58797-0.06784 1.2438q-0.02261 1.1759-0.13568 2.3971-0.02262 0.45228-0.27137 2.9851l-0.06784 0.70104-0.04523 0.45228-0.13568 1.2438q-0.02261 0.09046-0.02261 0.1583 0.02261 0.04523 0.02261 0.11307 0.04523 0.11307 0.02261 0.18091z"/>
  <path d="m90.106 19.123q0.11307 0.13568 0.52012 0.58797 0.42967 0.45228 0.67842 0.92718 0.27137 0.45228 0.27137 0.88195 0 0.54274-0.40705 1.0176-0.49751 0.61058-1.2212 0.61058-0.3166 0-0.70104-0.09046t-0.49751-0.11307q-1.7865-0.36183-4.161-0.36183-1.8317 0-3.8896 0.18091-0.18091 0.02261-0.52012 0.04523-0.33921 0.02261-0.61058 0.02261-0.81411 0-1.3116-0.24876-0.4749-0.27137-0.4749-0.97241 0-0.40705 0.1583-0.85934 0.1583-0.4749 0.4749-1.1307l0.20353-0.4749q0.33921-0.83672 0.74627-1.2664 0.40705-0.45228 1.1533-0.45228 0.61058 0 0.94979 0.40705 0.36183 0.38444 0.36183 0.97241 0 0.40705-0.20353 0.81411 1.4247-0.09046 3.2338-0.09046 1.0629 0 1.6056 0.02261-2.0805-2.6232-3.0981-3.9575l-1.5604-1.9674q-0.36183-0.45228-0.61058-0.70104-0.83672-0.97241-1.2664-1.6508-0.42967-0.70104-0.42967-1.4247 0-0.67842 0.4749-1.0855 0.49751-0.42967 1.1533-0.6332 0.67842-0.22614 1.6961-0.42967l0.94979-0.20353q1.7865-0.45228 3.6861-0.81411 0.1583-0.022614 0.6332-0.11307 0.76888-0.20353 1.3568-0.20353 0.74627 0 1.1307 0.40705 0.40705 0.42967 0.40705 0.88195 0 0.42967-0.27137 0.85934-0.24876 0.42967-0.81411 1.1307-0.67842 0.81411-0.85934 1.1985-0.29398 0.6332-0.6332 1.0629-0.3166 0.42967-0.72365 0.42967-0.29398 0-0.58797-0.22614-0.3166-0.24876-0.3166-0.67842 0-0.3166 0.13568-0.65581 0.1583-0.36182 0.29398-0.65581 0.1583-0.29398 0.20353-0.36183-1.1533 0.20353-3.4147 0.79149-0.27137 0.09046-1.1081 0.29398l2.7137 3.1207q3.4826 3.9575 4.5002 5.156z"/>
  <path d="m103.88 19.847q0.85934 0.11307 0.85934 0.90456 0 0.29398-0.13569 0.65581-0.11307 0.33921-0.3166 0.6332-0.42966 0.6332-0.99502 0.85934-0.54274 0.22614-1.4247 0.27137-1.7865 0.06784-2.5554 0.06784-2.2162 0.06784-3.0755 0.11307-1.7639 0.06784-3.0981 0.45228-0.54274 0.13568-0.74627 0.13568-0.24876 0-0.38444-0.1583t-0.13568-0.56535q0-0.42967 0.1583-0.88195 0.18091-0.4749 0.54274-1.2664 0.3166-0.61058 0.49751-1.1307 0.04523-0.1583 0.20353-0.6332 0.18091-0.4749 0.24876-0.85934 0.02262-0.11307 0.02262-0.27137 0-0.13568-0.04523-0.3166-0.04523-0.20353-0.06784-0.38444-0.02261-0.36182 0.09046-0.70104 0.13568-0.36183 0.38444-0.81411 0.38444-0.79149 0.45228-1.1307 0.40705-1.9448 0.45228-2.9398l0.02261-0.70104q0-0.67842-0.13568-0.99502-0.11308-0.27137-0.40706-0.54274-0.27137-0.27137-0.36182-0.45228-0.11307-0.20353-0.11307-0.54274 0-0.38444 0.18091-0.81411 0.20353-0.45228 0.49751-0.81411 0.52012-0.67842 1.2438-0.67842 0.54274 0 1.0855 0.3166 0.56535 0.3166 1.3568 0.92718 0.58797 0.45228 0.88195 0.6332 1.0629 0.6332 1.7865 0.97241 0.72365 0.33921 1.5378 0.49751 0.38444 0.067842 0.72365 0.067842 0.36183 0 0.72365-0.067842 0.13569-0.022614 0.42967-0.13568 0.3166-0.13568 0.4749-0.13568t0.27137 0.090457q0.22614 0.1583 0.22614 0.52012 0 0.36183-0.22614 0.81411-0.20353 0.42967-0.42967 0.72365-0.70104 0.85934-1.99 1.0402-0.40706 0.06784-0.83673 0.06784-1.1533 0-2.2614-0.38444-1.1081-0.40705-2.5328-1.1307-0.13568 1.7413-0.52012 3.6183l0.76888-0.18091q1.1985-0.29398 1.9448-0.42967 0.76888-0.1583 1.4925-0.1583 0.3166 0 0.4749 0.02261 0.79149 0.06784 0.79149 0.79149 0 0.33921-0.18091 0.74627-0.1583 0.40705-0.40705 0.74627-0.45229 0.61058-1.1081 0.79149t-1.6961 0.20353l-0.76888 0.04523q-0.81411 0.09046-1.2438 0.1583-0.42967 0.04523-0.54274 0.11307-0.09046 0.04523-0.18091 0.20353-0.06784 0.1583-0.1583 0.29398-0.1583 0.27137-0.29398 0.70104t-0.22614 0.85934q-0.13568 0.6332-0.22614 0.90456 1.2664-0.29398 3.6861-0.54274 2.4423-0.27137 4.1158-0.27137 0.72365 0 1.1986 0.06784z"/>
 </g>
 <path d="m13.613 27.902c-3.4374-0.16116-6.6306-1.5747-9.0784-4.0187-2.2181-2.2147-3.5508-4.9453-3.9622-8.1182-0.11992-0.92492-0.11048-2.4466 0.021474-3.4576 0.67641-5.1831 4.247-9.5487 9.2087-11.259 2.2863-0.78801 4.8303-0.95358 7.2327-0.47071 3.8959 0.78307 7.248 3.2111 9.2606 6.7077 1.7311 3.0075 2.242 6.6961 1.4041 10.136-0.94444 3.8778-3.6076 7.2178-7.1943 9.0228-1.6932 0.85212-3.607 1.3687-5.3447 1.4426-0.26197 0.01121-0.57455 0.02564-0.69462 0.03219-0.12007 0.0065-0.50409-0.0015-0.85338-0.01785zm2.3021-1.0069c3.0534-0.41414 5.7595-1.8127 7.8362-4.05 1.8212-1.962 2.9285-4.3372 3.3231-7.1282 0.09822-0.69468 0.09841-2.5094 3.31e-4 -3.2116-0.33669-2.4112-1.1499-4.3607-2.6409-6.3309-0.4611-0.6093-1.7002-1.8271-2.3664-2.3259-2.4202-1.8117-5.1608-2.6857-8.1568-2.6015-2.2585 0.063527-4.3115 0.66502-6.2815 1.8404-1.3138 0.78385-2.6731 2.008-3.6073 3.2484-1.3681 1.8166-2.1947 3.8416-2.5232 6.181-0.096928 0.69024-0.095367 2.5091 0.00258 3.2034 0.21589 1.5278 0.58739 2.7621 1.2187 4.0487 1.897 3.8663 5.5412 6.507 9.8013 7.1023 0.78244 0.10934 0.87469 0.11405 1.9648 0.1004 0.59077-0.0074 1.1335-0.03648 1.4289-0.07653zm-2.8181-1.0567c-0.73967-0.07585-1.7064-0.27581-2.4154-0.4996l-0.3117-0.0984 0.07597-0.08629c0.04178-0.04746 0.21987-0.24704 0.39575-0.44352 0.95204-1.0635 1.7074-2.2328 1.978-3.0616 0.12631-0.38694 0.12334-0.48636-7e-3 -0.23287-0.38226 0.74377-1.0841 1.7461-1.7786 2.5403-0.46201 0.52829-1.0216 1.0915-1.0844 1.0915-0.18572 0-1.4464-0.63953-2.092-1.0613-0.42074-0.27484-1.1571-0.83084-1.2524-0.94565-0.051055-0.06153-0.048782-0.06601 0.022201-0.04396 0.491 0.15244 1.5587 0.23057 2.0667 0.15124 0.68305-0.10664 1.3903-0.38502 1.9872-0.78216 0.64635-0.43007 1.3307-1.1781 1.6682-1.8233l0.14533-0.27784-0.39823 0.38097c-0.74122 0.70912-1.5179 1.1364-2.5285 1.391-0.47547 0.1198-1.5138 0.14729-2.0362 0.053919-1.5731-0.2812-3.0994-1.36-3.7474-2.6486-0.13019-0.25891-0.15424-0.34555-0.15424-0.55567v-0.24893l0.3103 0.47628c0.89414 1.3724 2.1588 2.242 3.6344 2.4988 0.45143 0.07858 1.2251 0.07858 1.6765 0 0.94646-0.16472 1.9265-0.64715 2.5829-1.2715l0.2702-0.25698-0.27785 0.17466c-0.61385 0.38587-1.2327 0.63678-1.9374 0.78559-0.56559 0.11942-1.4674 0.11911-2.0393-6.64e-4 -1.7669-0.3701-3.178-1.479-4.047-3.1802-0.14403-0.28198-0.1982-0.43713-0.21478-0.61523l-0.022171-0.23815-0.10428 0.2236c-0.05736 0.12298-0.14427 0.35518-0.19316 0.516l-0.088881 0.2924-0.050313-0.12314c-0.09958-0.24372-0.372-1.3151-0.44805-1.7622-0.19406-1.1408-0.21357-2.7226-0.047009-3.8108 0.20406-1.3332 0.6522-2.6633 1.2967-3.8486 0.24827-0.45663 0.47533-0.82024 0.43447-0.69575-0.41046 1.2505-0.57906 2.222-0.58201 3.3534l-0.00167 0.69399 0.1525 0.1313c0.08388 0.07221 0.38917 0.31174 0.67842 0.53227 0.28926 0.22053 0.52592 0.41253 0.52592 0.42667 0 0.01409-0.072741 0.20358-0.16164 0.42098-0.35057 0.85727-0.45467 1.4183-0.42361 2.2828 0.022898 0.63702 0.098655 0.99387 0.3195 1.5047 0.56873 1.3155 1.9763 2.3258 3.5653 2.5592 1.2184 0.17895 2.2934-0.07189 3.3051-0.77129 0.32674-0.22588 0.81398-0.69364 1.0753-1.0323 0.26271-0.34049 0.56689-0.89975 0.68258-1.255l0.10542-0.32372 1.3278 0.011 0.06656 0.21114c0.20973 0.66528 0.63385 1.3289 1.1976 1.8739 0.62673 0.60585 1.3213 1.0075 2.1069 1.2184 0.34293 0.09205 0.46428 0.10437 1.043 0.10579 0.72548 0.0018 1.0715-0.05278 1.6671-0.26287 1.4745-0.52012 2.4922-1.5718 2.865-2.9608 0.10162-0.37856 0.14289-1.3513 0.07607-1.7933-0.0635-0.42014-0.22823-0.99159-0.40532-1.4061-0.14104-0.33013-0.14668-0.3578-0.08209-0.40304 0.14904-0.1044 0.95894-0.75923 1.1219-0.9071l0.17225-0.1563 0.01634-0.49056c0.03141-0.94359-0.14776-2.1532-0.46583-3.1449-0.08729-0.27214-0.15252-0.50098-0.14497-0.50854 0.02622-0.026217 0.41336 0.64905 0.68903 1.2018 0.61971 1.2426 1.0165 2.6347 1.1578 4.0627 0.05233 0.52844 0.05233 1.7455 0 2.2739-0.08968 0.90576-0.29983 1.8875-0.56328 2.6314l-0.12566 0.35486-0.06832-0.27548c-0.03757-0.15151-0.11866-0.40944-0.1802-0.57317l-0.11189-0.29769-0.02505 0.19846c-0.0147 0.11698-0.1027 0.3533-0.21416 0.57554-0.84388 1.6826-2.2732 2.8075-4.0416 3.1809-0.79679 0.16823-1.8571 0.10269-2.6867-0.16608-0.38198-0.12375-1.0064-0.43202-1.3892-0.68591l-0.33738-0.22372 0.36535 0.35074c0.98816 0.94865 2.2103 1.4479 3.5443 1.4479 1.0333 0 1.8459-0.2515 2.7217-0.84242 0.67252-0.45374 1.2372-1.0542 1.704-1.812l0.23815-0.38662 0.01167 0.28103c0.01379 0.33482-0.05171 0.48832-0.42165 0.98725-0.71139 0.95945-1.6334 1.6538-2.6555 1.9998-0.58923 0.19949-0.92716 0.25244-1.5983 0.25042-0.94133-0.0029-1.5751-0.1591-2.4258-0.59812-0.52129-0.26904-0.89311-0.54545-1.3983-1.0395l-0.39067-0.38207 0.13875 0.27915c0.48881 0.98341 1.5407 1.9298 2.6198 2.3571 0.63026 0.24956 0.93103 0.30126 1.734 0.29805 0.71832-0.0029 0.9529-0.03329 1.548-0.20076 0.23258-0.06545-0.92427 0.81573-1.6317 1.2429-0.42658 0.25757-1.2677 0.68555-1.5696 0.79868l-0.20457 0.07665-0.31561-0.3222c-1.0137-1.0349-1.8965-2.1968-2.4765-3.2594-0.17751-0.32524-0.18909-0.29772-0.05428 0.12904 0.26744 0.84657 1.1675 2.2093 2.1637 3.276 0.15873 0.16996 0.28178 0.31569 0.27345 0.32386-0.03114 0.03054-0.50659 0.17872-0.94791 0.29545-0.5228 0.13828-1.2243 0.26199-1.8201 0.32098-0.47365 0.0469-1.8608 0.04546-2.3277-0.0024zm1.284-6.4977c0.1593-0.22371 0.60166-1.3889 0.60099-1.583-6.63e-4 -0.1762-0.16996-0.49514-0.34825-0.65585-0.18801-0.16948-0.39039-0.22312-0.56654-0.15015-0.25422 0.10531-0.51374 0.53846-0.51374 0.85747 0 0.25799 0.41154 1.3882 0.56544 1.5529 0.10963 0.1173 0.16668 0.11266 0.2621-0.02135zm-5.7295-0.82224c-1.7832-0.33695-3.0291-2.0415-2.9013-3.9691 0.031112-0.46905 0.14726-1.0746 0.2042-1.0647 0.022065 0.0038 0.30752 0.16651 0.63432 0.36144 1.8308 1.092 3.5743 1.8115 5.3572 2.2108 0.26197 0.05866 0.48308 0.11342 0.49135 0.12166 0.02572 0.02563-0.26237 0.60369-0.41676 0.8363-0.75009 1.1301-2.1171 1.7401-3.369 1.5036zm2.145-1.1522c0.13012-0.03342 0.33481-0.10817 0.45488-0.16615 0.23691-0.11438 0.62448-0.47365 0.72899-0.67575l0.06526-0.12618-0.14904-0.03901c-0.08197-0.02146-0.29591-0.07601-0.47541-0.12122-0.1795-0.04522-0.37444-0.10049-0.43319-0.12283-0.09288-0.03531-0.12281-0.02543-0.22933 0.07567-0.39396 0.37397-1.1158 0.43149-1.7055 0.13592-0.43542-0.21823-0.76776-0.65815-0.81444-1.0781l-0.023762-0.21362-0.89307-0.47289 6.622e-4 0.31114c0.00133 0.73405 0.30105 1.3562 0.88603 1.8394 0.30206 0.24954 0.86135 0.53134 1.2568 0.63323 0.37299 0.09611 0.99894 0.10567 1.3313 0.02034zm7.9766 1.1522c-1.0704-0.20227-1.9777-0.89818-2.4815-1.9034-0.2177-0.43436-0.21833-0.43064 0.08012-0.47687 0.69002-0.10687 1.9246-0.47201 2.8777-0.85113 0.92635-0.36847 2.3988-1.1422 3.2801-1.7237l0.10472-0.06909 0.06391 0.34897c0.22628 1.2355 0.03716 2.2904-0.57131 3.187-0.76847 1.1323-2.1033 1.7246-3.3537 1.4883zm0.54721-1.2405c0.89286-0.30609 1.5767-0.95002 1.8141-1.7081 0.07865-0.25121 0.15349-0.88154 0.10466-0.88154-0.0144 0-0.22077 0.09758-0.45856 0.21683l-0.43235 0.21683-0.04331 0.20192c-0.0805 0.37534-0.28201 0.66726-0.61163 0.88606-0.5874 0.3899-1.3521 0.41031-1.8262 0.04874l-0.14144-0.10788-1.1924 0.29615 0.0681 0.11907c0.11534 0.20165 0.41778 0.47816 0.67008 0.61263 0.39224 0.20906 0.60041 0.25011 1.1842 0.23352 0.4469-0.01273 0.56269-0.03069 0.86474-0.13422zm-5.9652-1.6222c-1.725-0.16248-3.1699-0.67846-4.3525-1.5543-0.4635-0.34328-1.0827-0.97364-1.4029-1.4282-0.25797-0.36622-0.63346-1.021-0.63451-1.1065-9.941e-4 -0.083774 0.36447-0.45233 0.77389-0.78033 0.94243-0.75501 2.0466-1.2682 3.5206-1.6361 0.31199-0.077879 0.60298-0.1506 0.64664-0.16161 0.04366-0.011063-0.17191 0.11095-0.47904 0.271-0.84494 0.4403-1.3562 0.83796-1.809 1.407-0.19005 0.23884-0.54991 0.82521-0.54991 0.89605 0 0.0176 0.11599-0.101 0.25776-0.26355 0.45022-0.51622 1.0979-0.99203 1.8197-1.3368 2.2716-1.0851 5.1618-0.88665 7.1906 0.49373 0.1973 0.13424 0.54935 0.43575 0.78639 0.67349l0.42916 0.43044-0.1179-0.23355c-0.1598-0.31657-0.538-0.81335-0.84482-1.1097-0.37067-0.35804-0.71085-0.59608-1.2955-0.90652-0.28623-0.15199-0.51704-0.27974-0.5129-0.28387 0.0041-0.00409 0.24866 0.055208 0.54337 0.13187 1.0927 0.28423 1.8853 0.59921 2.6416 1.0497 0.40448 0.24094 1.1303 0.78889 1.3205 0.99694l0.09209 0.10072-0.1264 0.25247c-0.41826 0.83547-0.97172 1.5424-1.7078 2.1814-1.1042 0.95852-2.6215 1.6168-4.2423 1.8405-0.45381 0.06263-1.609 0.10758-1.9469 0.07576zm-6.7785-5.2228c-0.16905-0.73676-0.1866-0.9334-0.18705-2.0955-3.319e-4 -1.2366 0.042523-1.6935 0.25784-2.7401 0.13037-0.63371 0.065679-0.54347 0.73838-1.0299 1.558-1.1265 3.231-1.8055 5.2359-2.1251 0.54994-0.087668 2.0945-0.12231 2.7427-0.061527 2.2049 0.20679 4.1364 0.94761 5.9726 2.2908l0.34107 0.24949 0.08664 0.49578c0.14668 0.83942 0.21088 1.5847 0.21227 2.4641 0.0017 1.0324-0.08224 1.7989-0.27052 2.4723l-0.05866 0.20984-0.3521-0.32289c-0.42861-0.39305-1.1223-0.91793-1.5726-1.19-0.8154-0.49252-1.9889-0.9758-2.9321-1.2075-1.3278-0.32614-2.9352-0.38466-4.2892-0.15615-1.9165 0.32342-3.8289 1.2445-5.196 2.5025-0.11119 0.10232-0.3017 0.28201-0.42334 0.39931l-0.22117 0.21326z" fill="#216778" stroke-width=".039692"/>
</svg>
